PathFileType	4	(X/Y/Z)	C:\Users\Basilio\Documents\Thesis Gigler\squatting_fais\c3dfiles\038\SJ_pre1\markers_experimental.trc
DataRate	CameraRate	NumFrames	NumMarkers	Units	OrigDataRate	OrigDataStartFrame	OrigNumFrames
200.000000	200.000000	4	61	mm	200.000000	853	1366
Frame#	Time	FHD			LBHD			RBHD			C7			T10			CLAV			LSHO			LUUPA			LMUPA			LDUPA			LLEP			LMEP			LRAD			LUL			LRFIN			RSHO			RUPA1			RMUPA			RDUPA			RLEP			RMEP			RRAD			RUL			RUFIN			LASI			RASI			USACR			LSACR			RSACR			LTHI1			LTHI2			LTHI3			LTHI4			LLFC			LMFC			LTIB1			LTIB2			LTIB3			LTIB4			LLMAL			LMMAL			LHEE			LMT1			LMT2			LMT5			RTHI			RTHI2			RTHI3			RTHI4			RLFC			RMFC			RTIB1			RTIB2			RTIB3			RTIB4			RLMAL			RMMAL			RHEE			RMT1			RMT2			RMT5			
		X1	Y1	Z1	X2	Y2	Z2	X3	Y3	Z3	X4	Y4	Z4	X5	Y5	Z5	X6	Y6	Z6	X7	Y7	Z7	X8	Y8	Z8	X9	Y9	Z9	X10	Y10	Z10	X11	Y11	Z11	X12	Y12	Z12	X13	Y13	Z13	X14	Y14	Z14	X15	Y15	Z15	X16	Y16	Z16	X17	Y17	Z17	X18	Y18	Z18	X19	Y19	Z19	X20	Y20	Z20	X21	Y21	Z21	X22	Y22	Z22	X23	Y23	Z23	X24	Y24	Z24	X25	Y25	Z25	X26	Y26	Z26	X27	Y27	Z27	X28	Y28	Z28	X29	Y29	Z29	X30	Y30	Z30	X31	Y31	Z31	X32	Y32	Z32	X33	Y33	Z33	X34	Y34	Z34	X35	Y35	Z35	X36	Y36	Z36	X37	Y37	Z37	X38	Y38	Z38	X39	Y39	Z39	X40	Y40	Z40	X41	Y41	Z41	X42	Y42	Z42	X43	Y43	Z43	X44	Y44	Z44	X45	Y45	Z45	X46	Y46	Z46	X47	Y47	Z47	X48	Y48	Z48	X49	Y49	Z49	X50	Y50	Z50	X51	Y51	Z51	X52	Y52	Z52	X53	Y53	Z53	X54	Y54	Z54	X55	Y55	Z55	X56	Y56	Z56	X57	Y57	Z57	X58	Y58	Z58	X59	Y59	Z59	X60	Y60	Z60	X61	Y61	Z61	

854	4.265	-287.9665222167969	2067.747314453125	-914.5503540039065	-377.3539428710938	1923.436401367188	-968.1281738281252	-355.9295959472657	1928.296752929688	-822.060729980469	-335.2199096679688	1800.921875	-884.804870605469	-322.3140869140626	1526.524536132813	-887.1484985351565	-191.4702758789063	1818.268432617188	-908.8347167968752	-243.4724731445313	1867.887817382813	-1053.366821289063	-253.7388000488282	1707.846069335938	-1241.910888671875	-206.0032196044922	1690.305419921875	-1238.471801757813	-230.9303588867188	1653.4638671875	-1278.986938476563	-209.4663543701172	1596.864013671875	-1301.331787109375	-277.5162048339844	1552.317993164063	-1274.760375976563	-110.3607559204102	1371.92333984375	-1127.916381835938	-68.14434051513673	1367.167602539063	-1188.340698242188	-62.61843490600587	1321.264526367188	-1085.967407226563	-194.9508972167969	1853.963012695313	-756.6627197265626	-113.8541030883789	1711.18896484375	-586.5592041015626	-86.95041656494142	1674.760375976563	-606.3226318359376	-94.59789276123048	1653.6845703125	-549.9838256835939	-69.63854217529298	1585.41015625	-526.2457275390626	-146.5140075683594	1548.114990234375	-515.6228637695314	-32.98295593261719	1362.55419921875	-692.2338256835939	20.50223350524903	1348.079223632813	-646.3518676757814	7.843612194061281	1307.309448242188	-743.2767333984376	-187.0494995117188	1334.135986328125	-1017.870788574219	-182.9642944335938	1336.132934570313	-772.211608886719	-343.6817016601563	1390.337646484375	-894.823669433594	-361.3296203613282	1364.315795898438	-923.5042114257815	-356.3471374511719	1360.895385742188	-867.1564941406252	-270.7533264160157	1015.539733886719	-1115.293212890625	-243.6017761230469	935.0838012695315	-1123.169067382813	-195.7223205566407	936.7725830078127	-1106.892822265625	-271.8096008300782	884.4758911132815	-1106.720336914063	-268.9965515136719	823.3842773437502	-1108.626098632813	-230.8957519531251	795.375915527344	-996.4251098632815	-233.7090606689454	625.1663818359376	-1079.458984375	-289.4089050292969	596.0900878906251	-1142.374633789063	-249.5906524658204	586.0463867187501	-1121.325927734375	-261.0706481933594	502.1776123046876	-1104.370361328125	-351.6991271972657	376.9299621582032	-1135.161254882813	-302.5474548339844	377.0805053710938	-1070.477783203125	-399.426727294922	373.3298034667969	-1082.797241210938	-227.6961364746094	253.3955383300782	-1079.091918945313	-225.8424530029297	242.5450744628907	-1129.591674804688	-277.8687744140626	235.4018096923829	-1165.851318359375	-282.5959472656251	1068.43115234375	-702.8399658203126	-249.7024230957032	1011.907287597656	-685.6044921875001	-217.5040893554688	1011.86962890625	-683.4985351562501	-278.3212280273438	932.1712036132815	-702.7940673828126	-268.5332031250001	794.9524536132815	-696.4476318359376	-231.6246490478516	782.5826416015627	-812.3186645507815	-225.7333374023438	615.7592773437501	-693.5742187500001	-310.7027893066407	540.1889648437501	-672.3906860351564	-263.4487609863282	541.6279296875001	-668.7214965820314	-247.3629760742188	488.5361633300782	-689.7767944335939	-319.3773803710938	367.6408691406251	-666.8335571289064	-272.6412963867188	367.4220886230469	-735.0570068359376	-369.1708068847657	370.8240051269532	-743.6525878906251	-204.0112762451172	233.9858093261719	-709.3841552734376	-214.0486602783204	231.5972747802735	-663.5999755859376	-269.6988525390626	230.2317657470704	-634.2493896484376	
855	4.27	-289.2415771484376	2073.177734375	-914.6707763671877	-378.7278747558594	1928.889526367188	-968.6289672851565	-357.3928833007813	1933.487670898438	-822.5112915039065	-336.3202819824219	1806.182983398438	-884.9226074218752	-322.0407409667969	1531.586791992188	-886.8191528320315	-192.4886169433594	1823.719604492188	-909.2822875976565	-244.718246459961	1873.312744140625	-1053.6796875	-254.0519714355469	1713.708862304688	-1242.347778320313	-206.3703308105469	1696.150512695313	-1238.58935546875	-230.9690551757813	1659.390502929688	-1279.522094726563	-209.3242645263672	1602.901000976563	-1301.947875976563	-277.1898803710938	1558.01611328125	-1275.56396484375	-108.8077926635742	1378.57421875	-1129.166015625	-66.28411102294923	1374.159912109375	-1189.4580078125	-60.92317962646486	1327.63037109375	-1086.98486328125	-195.7862548828126	1859.511352539063	-756.8880004882814	-114.4930877685547	1717.336181640625	-586.6368408203126	-87.3976287841797	1680.888305664063	-606.4410400390626	-94.97078704833986	1660.096557617188	-550.0829467773439	-69.82755279541017	1591.813720703125	-526.2392578125001	-146.718994140625	1554.33447265625	-515.6362915039064	-32.35933685302735	1368.702392578125	-691.7778320312501	20.753324508667	1353.728637695313	-645.5018920898439	8.891172409057619	1313.779418945313	-742.6600341796876	-186.8222045898438	1340.089477539063	-1018.509338378906	-182.344223022461	1340.992309570313	-771.978454589844	-343.6111755371094	1394.5654296875	-893.802429199219	-361.3019714355469	1367.994384765625	-922.5476074218752	-356.1167907714844	1364.983520507813	-865.966003417969	-270.5445251464844	1020.879943847656	-1114.518676757813	-243.4795227050782	940.4530029296877	-1122.538330078125	-195.2649383544922	942.092956542969	-1106.713745117188	-271.7284545898438	889.8308715820315	-1105.974243164063	-269.4307861328126	828.6958007812502	-1107.985229492188	-231.6486206054688	800.8629150390627	-995.3897705078127	-233.9222412109376	631.3624267578126	-1079.114868164063	-289.9338989257813	602.0785522460939	-1141.586059570313	-250.2984924316407	591.6124267578126	-1120.551513671875	-261.6124267578126	508.0394897460939	-1103.492309570313	-352.8971862792969	382.2732849121094	-1134.17236328125	-303.4104309082032	382.4147033691407	-1069.79296875	-400.1471252441407	379.0122985839844	-1081.489135742188	-228.3203277587891	258.8952636718751	-1079.274169921875	-227.0564880371094	248.1053619384766	-1129.552001953125	-279.4881896972657	241.6029205322266	-1165.6474609375	-282.6390075683594	1073.4541015625	-703.2246093750001	-249.737777709961	1017.018676757813	-686.3814086914064	-217.3617706298829	1016.890686035156	-684.0363159179689	-278.5872497558594	937.2160644531252	-703.5847167968751	-269.4489135742188	799.9345703125002	-697.2352294921876	-233.3288726806641	787.7478027343752	-813.283142089844	-226.4652404785157	620.8329467773439	-694.3684082031251	-311.4141845703126	545.3959350585939	-672.5046997070314	-263.9177246093751	546.8252563476564	-669.2908325195314	-247.8958892822266	493.8087463378907	-690.2687377929689	-320.1255187988282	373.0971679687501	-667.1356201171876	-273.4699401855469	372.1690368652344	-735.4338989257814	-370.0457763671876	375.5215454101563	-743.9911499023439	-205.1413879394532	239.3166656494141	-708.6337280273439	-214.6924438476563	237.2936553955079	-662.9776000976564	-270.3601379394532	236.2500762939454	-633.1006469726564	
856	4.275	-290.6282653808594	2078.2275390625	-915.0171508789065	-380.1702880859376	1934.046997070313	-969.0977172851565	-359.0900573730469	1938.4873046875	-822.7796630859377	-337.3548583984376	1811.077880859375	-885.0871582031252	-321.9444580078126	1536.595825195313	-886.3872680664065	-193.5767822265626	1828.921020507813	-909.519958496094	-246.0645294189454	1878.40673828125	-1053.977416992188	-254.4944763183594	1719.326171875	-1242.791259765625	-206.6132049560547	1701.8037109375	-1238.735107421875	-231.1329193115235	1665.064697265625	-1279.864135742188	-209.1344909667969	1608.671020507813	-1302.507934570313	-276.8777465820313	1563.440795898438	-1276.386474609375	-107.1283645629883	1384.646484375	-1130.24462890625	-64.8779754638672	1380.8369140625	-1190.2763671875	-59.63269042968751	1333.905151367188	-1088.068115234375	-196.5762023925782	1864.937133789063	-756.9950561523439	-115.3687438964844	1723.321166992188	-587.1937255859376	-88.74037170410158	1687.598876953125	-606.8796997070314	-96.19271087646487	1666.918701171875	-550.3219604492189	-70.1300735473633	1597.9873046875	-526.3173828125001	-146.9561767578125	1560.23291015625	-515.6201782226564	-31.84606552124024	1374.245849609375	-691.4336547851564	20.86470985412598	1359.305053710938	-644.6305541992189	9.471841812133791	1319.654296875	-741.8363037109376	-187.4310150146485	1344.521484375	-1019.548034667969	-181.308822631836	1345.5341796875	-771.8386230468752	-343.1598205566407	1398.482788085938	-892.8903808593752	-361.1882629394532	1371.812133789063	-921.2849731445315	-355.6585083007813	1369.049072265625	-864.8236083984377	-270.2118835449219	1025.975708007813	-1113.763305664063	-243.4163360595704	945.617126464844	-1121.760498046875	-195.4470825195313	946.9104003906252	-1106.07470703125	-271.8257141113282	894.995544433594	-1105.155639648438	-269.5265502929688	833.8318481445315	-1107.281005859375	-232.361312866211	805.917419433594	-994.5241699218752	-234.2974090576172	636.2504882812501	-1078.348510742188	-290.5101928710938	606.9947509765626	-1140.8623046875	-251.1218719482422	596.3575439453126	-1120.072265625	-262.2277221679688	513.4163208007814	-1103.034423828125	-353.8320007324219	387.7351379394532	-1133.041137695313	-303.8791809082032	387.4278564453126	-1069.1455078125	-400.722381591797	383.8600158691407	-1079.6416015625	-228.5114898681641	264.0694274902344	-1079.731323242188	-227.5936584472657	253.4807586669922	-1130.103393554688	-280.4533691406251	247.3081359863282	-1165.786254882813	-282.4811706542969	1078.338745117188	-703.5332031250001	-249.7303314208985	1021.630004882813	-686.8331298828126	-217.3271179199219	1021.210144042969	-684.8909301757814	-278.9649963378907	942.057312011719	-704.4321899414064	-270.1665649414063	804.6979980468752	-697.6494140625001	-234.840805053711	792.6452636718752	-814.237243652344	-227.2581787109376	625.5792236328126	-695.0603027343751	-312.1036682128907	549.9743041992189	-672.8571166992189	-264.4137268066407	551.7211303710939	-669.7383422851564	-248.6307373046876	498.8898315429689	-690.8618164062501	-320.7393188476563	378.2745056152344	-667.4321899414064	-274.3154907226563	376.9319763183594	-735.9226684570314	-370.9573974609376	379.5528869628907	-743.8884887695314	-205.3084411621094	244.6850891113282	-707.3633422851564	-214.7129974365235	242.6369171142579	-661.9364624023439	-270.5006713867188	242.1315460205079	-631.9613037109376	
857	4.28	-292.1590270996094	2083.06787109375	-915.304138183594	-381.6086425781251	1938.955078125	-969.4272460937502	-360.5661621093751	1943.525146484375	-823.0928344726565	-338.5282287597657	1815.713134765625	-885.1776123046877	-321.6890869140626	1541.399047851563	-885.960876464844	-194.8336791992188	1833.87158203125	-909.672302246094	-247.6451416015626	1883.27294921875	-1054.287719726563	-254.8964233398438	1724.68212890625	-1243.345458984375	-207.1395721435547	1706.9765625	-1238.489624023438	-231.2988281250001	1670.392944335938	-1280.333374023438	-208.9747467041016	1614.307006835938	-1303.182373046875	-276.6744384765626	1568.647094726563	-1277.189208984375	-105.8663864135742	1390.693481445313	-1131.249389648438	-63.41957473754884	1387.104736328125	-1191.138549804688	-58.54518890380861	1340.208374023438	-1089.183349609375	-197.3648986816407	1869.980834960938	-757.1044311523439	-116.0242156982422	1729	-587.3159790039064	-89.32869720458986	1693.317138671875	-607.0597534179689	-96.92216491699222	1672.785278320313	-550.5615234375001	-70.55854797363283	1603.896606445313	-526.3447875976564	-147.2708740234375	1565.9482421875	-515.5327148437501	-31.49882316589356	1380.16162109375	-690.8303833007814	20.80327224731446	1364.666137695313	-643.7510986328126	10.00115966796875	1325.210083007813	-741.1323242187501	-187.1131439208985	1349.893310546875	-1020.429992675781	-180.0648193359375	1350.831787109375	-772.4185180664065	-342.7898559570313	1402.25634765625	-891.871276855469	-360.7583923339844	1375.74462890625	-920.0673828125002	-355.3471069335938	1373.429443359375	-863.6585083007815	-270.1078491210938	1030.9189453125	-1112.95947265625	-243.4525299072266	950.4099121093752	-1121.073120117188	-195.3278045654297	951.4067993164065	-1105.72705078125	-272.1445312500001	900.0572509765627	-1104.263549804688	-269.7938842773438	839.080749511719	-1106.535278320313	-233.1631317138672	810.2937011718752	-993.5794067382815	-234.9090576171876	641.5714111328126	-1077.658813476563	-291.3065185546876	612.1524658203126	-1140.130004882813	-251.8498229980469	601.3530273437501	-1119.33935546875	-262.8939514160157	517.9634399414064	-1102.415893554688	-354.5208129882813	392.8776245117189	-1132.09912109375	-303.9313964843751	392.615692138672	-1068.188842773438	-401.1960449218751	388.3005981445314	-1078.509887695313	-228.4457397460938	269.3101806640626	-1080.72900390625	-227.8706817626954	259.2750244140626	-1131.365844726563	-281.2821044921876	252.3686218261719	-1166.447143554688	-282.0781555175782	1082.92822265625	-703.9818115234376	-249.6751861572266	1026.101318359375	-687.3322753906251	-217.2918853759766	1025.607421875	-684.9904785156251	-279.2706909179688	946.571472167969	-705.0883789062501	-270.6517639160157	809.5627441406252	-698.0230102539064	-236.5390319824219	797.0529785156252	-815.0847167968752	-227.8678131103516	630.2756347656251	-696.1110229492189	-312.2973632812501	555.0084838867189	-672.6309204101564	-264.8510437011719	556.4398193359376	-670.3894653320314	-249.3698120117188	503.6581115722657	-691.6103515625001	-321.2806396484376	383.1481933593751	-667.4895019531251	-274.4580993652344	381.1885375976563	-735.9702758789064	-371.4445495605469	383.6107482910157	-744.1936645507814	-205.1516265869141	249.5863342285157	-706.4493408203126	-214.6237335205079	248.2016296386719	-660.4927978515626	-270.2500000000001	247.6136169433594	-630.7437133789064	
